<svg width="1650" height="1650" viewBox="123 0 1650 1650" xmlns="http://www.w3.org/2000/svg" xmlns:xlink="http://www.w3.org/1999/xlink" xml:space="preserve" overflow="hidden"><defs><filter id="fx0" x="-10%" y="-10%" width="120%" height="120%" filterUnits="userSpaceOnUse" primitiveUnits="userSpaceOnUse"><feComponentTransfer color-interpolation-filters="sRGB"><feFuncR type="discrete" tableValues="0 0"/><feFuncG type="discrete" tableValues="0 0"/><feFuncB type="discrete" tableValues="0 0"/><feFuncA type="linear" slope="0.431373" intercept="0"/></feComponentTransfer><feGaussianBlur stdDeviation="6.83257 6.83257"/></filter><clipPath id="clip1"><rect x="922" y="478" width="1925" height="1650"/></clipPath><radialGradient cx="4572000" cy="0" r="6465784" fx="4572000" fy="-5.82077e-10" gradientUnits="userSpaceOnUse" spreadMethod="pad" id="fill2" gradientTransform="matrix(0.000360892 0 0 0.000360892 1045 478)"><stop offset="0" stop-color="#595959"/><stop offset="0.48" stop-color="#863F3A"/><stop offset="1" stop-color="#7F7F7F"/></radialGradient><clipPath id="clip3"><rect x="423" y="324" width="1086" height="514"/></clipPath></defs><g clip-path="url(#clip1)" transform="translate(-922 -478)"><path d="M1045 1002.77C1045 712.946 1279.95 478 1569.77 478L2170.23 478C2460.05 478 2695 712.946 2695 1002.77L2695 1603.23C2695 1893.05 2460.05 2128 2170.23 2128L1569.77 2128C1279.95 2128 1045 1893.05 1045 1603.23Z" fill="url(#fill2)" fill-rule="evenodd"/><g clip-path="url(#clip3)" filter="url(#fx0)" transform="translate(921 726)"><g><path d="M341.227-453.114 480.932-453.114 480.932-183.155C480.932-156.387 476.759-131.112 468.414-107.329 460.069-83.5455 446.984-62.7477 429.16-44.9352 411.337-27.1227 392.637-14.6138 373.062-7.40831 345.863 2.68193 313.203 7.72705 275.083 7.72705 253.035 7.72705 228.978 6.18244 202.912 3.09323 176.846 0.00402462 155.056-6.12208 137.541-15.2851 120.027-24.4481 104.006-37.4722 89.4792-54.3574 74.9524-71.2426 65.0102-88.6421 59.6528-106.556 50.9985-135.384 46.6714-160.917 46.6714-183.155L46.6714-453.114 186.376-453.114 186.376-176.727C186.376-152.02 193.228-132.719 206.93-118.823 220.633-104.927 239.642-97.979 263.956-97.979 288.064-97.979 306.97-104.825 320.673-118.516 334.375-132.207 341.227-151.611 341.227-176.727ZM571.9-453.114 756.036-453.114 827.047-177.413 897.552-453.114 1081.58-453.114 1081.58 0 966.907 0 966.907-345.554 878.553 0 774.759 0 686.57-345.554 686.57 0 571.9 0Z" fill="#FFFFFF" transform="matrix(1 0 0 1 401.462 804)"/></g></g><text fill="#FFFFFF" font-family="Arial Black,Arial Black_MSFontService,sans-serif" font-weight="900" font-size="633" transform="matrix(1 0 0 1 1307.97 1516)">UM</text></g></svg>